<svg width="14" height="14" viewBox="0 0 14 14" fill="none" xmlns="http://www.w3.org/2000/svg">
<path d="M13 7.9C13.4971 7.9 13.9 7.49706 13.9 7C13.9 6.50294 13.4971 6.1 13 6.1V7.9ZM0.363604 6.3636C0.0121321 6.71508 0.0121321 7.28492 0.363604 7.6364L6.09117 13.364C6.44264 13.7154 7.01249 13.7154 7.36396 13.364C7.71543 13.0125 7.71543 12.4426 7.36396 12.0912L2.27279 7L7.36396 1.90883C7.71543 1.55736 7.71543 0.987511 7.36396 0.636039C7.01249 0.284567 6.44264 0.284567 6.09117 0.636039L0.363604 6.3636ZM13 6.1L1 6.1V7.9L13 7.9V6.1Z" fill="#282828"/>
</svg>
