<svg width="90" height="36" viewBox="0 0 90 36" fill="none" xmlns="http://www.w3.org/2000/svg">
<g clip-path="url(#clip0_1_67)">
<path d="M76.1615 8.39138V2.87834H60.7344L58.1946 21.2891L55.6854 2.87834H50.122L50.7437 7.7945C50.1024 6.5345 47.8257 2.87834 42.8127 2.87834C42.7794 2.87618 37.2426 2.87834 37.2426 2.87834L37.2196 29.7135L33.1655 2.87834L25.8783 2.87618L21.6836 30.6802L21.6859 2.87834H14.7106L12.1969 18.4966L9.74817 2.87834H2.77173V33.1061H8.26587V18.5362L10.7653 33.1061H13.6857L16.1499 18.5362V33.1061H26.7407L27.3811 28.4567H31.645L32.2854 33.1061L42.6842 33.1128H42.6918V33.1061H42.7047V23.2954L43.9781 23.1111L46.617 33.1128H51.996L51.9938 33.1061H52.0091L48.5463 21.3863C50.2996 20.0941 52.2816 16.8181 51.7542 13.6827V13.6816C51.7607 13.7223 55.0238 33.1263 55.0238 33.1263L61.4199 33.1065L65.7901 5.70992V33.1065H76.1612V27.6706H71.2392V20.7394H76.1612V15.2206H71.2392V8.39138H76.1615ZM28.0282 23.6646L29.5379 10.7402L31.1021 23.6646H28.0282ZM43.9957 17.6967C43.5738 17.8988 43.1346 18 42.7047 18.001V8.27924C42.7114 8.27924 42.7215 8.27816 42.7323 8.27816C43.1607 8.27492 46.3688 8.40668 46.3688 13.0858C46.3688 15.5334 45.278 17.0771 43.9957 17.6967ZM87.2292 27.6656V33.0994H77.1107V2.87402H82.5596V27.6656H87.2292Z" fill="#282828"/>
</g>
<defs>
<clipPath id="clip0_1_67">
<rect width="90" height="36" fill="white"/>
</clipPath>
</defs>
</svg>
